<?xml version="1.0" encoding="utf-8"?>
<!-- Generator: Adobe Illustrator 16.0.3, SVG Export Plug-In . SVG Version: 6.00 Build 0)  -->
<!DOCTYPE svg PUBLIC "-//W3C//DTD SVG 1.1//EN" "http://www.w3.org/Graphics/SVG/1.1/DTD/svg11.dtd">
<svg version="1.1" id="Layer_1" xmlns="http://www.w3.org/2000/svg" xmlns:xlink="http://www.w3.org/1999/xlink" x="0px" y="0px"
	 width="1200px" height="300px" viewBox="0 0 1200 300" enable-background="new 0 0 1200 300" xml:space="preserve">
<path fill="#232020" d="M332.818,75.577v125.924c0,1.181,0.92,2.188,2.088,2.283c6.637,0.558,14.004,0.558,21.749,0
	c6.324-0.479,14.038-1.388,23.557-2.759c-0.346,1.914-0.52,3.994-0.52,6.238c0,1.913,0.196,4.233,0.57,6.75h-74.948V75.608
	c1.431,0.125,3.253,0.573,5.553,0.664c3.498,0.139,6.824,0.16,8.771,0.041l6.743-0.029
	C328.942,75.929,331.068,75.688,332.818,75.577z M422.654,82.469c-3.999,0.237-6.661-0.031-8.584,0.028h-6.742
	c-2.375-0.326-4.194-0.533-5.571-0.664v132.183h26.094V81.805C426.352,81.917,424.667,82.349,422.654,82.469z M448.499,81.709
	c0.25,1.872,0.378,3.744,0.378,5.583c0,2.407-0.12,4.543-0.343,6.359h4.354c12.346-1.564,22.712-2.356,30.667-2.356
	c1.269,0,2.293,1.023,2.293,2.284v120.437h25.312V93.579c0-1.261,1.025-2.284,2.293-2.284c5.781,0,14.055,0.529,24.618,1.575
	c2.667,0.387,5.503,0.628,8.456,0.736c-0.301-1.82-0.301-3.917,0.014-6.256c-0.333-1.874-0.314-3.768,0.055-5.64L448.499,81.709
	L448.499,81.709z M567.362,81.709v132.307h71.482c-0.355-2.389-0.539-4.564-0.539-6.354c0-2.062,0.156-3.99,0.457-5.769
	c-4.878,0.744-10.299,1.342-16.106,1.74c-6.761,0.532-16.082,0.805-27.699,0.805c-1.268,0-2.283-1.025-2.283-2.299v-51.137
	c0-1.256,1.018-2.288,2.283-2.288h19.129c6.373,0.378,11.502,0.749,16.619,1.12l3.801,0.264c-0.109-0.505-0.236-1.073-0.385-1.686
	l-0.067-9.198c0-0.263,0.036-0.513,0.124-0.736c0.06-0.181,0.114-0.359,0.169-0.529c-6.738,0.832-12.896,1.186-20.261,1.186h-19.129
	c-1.267,0-2.283-1.027-2.283-2.289V93.579c0-1.261,1.018-2.284,2.283-2.284c14.115,0,28.922,0.917,44.07,2.738
	c-0.486-2.091-0.722-4.093-0.722-5.956c0-2.224,0.234-4.362,0.728-6.368H567.362z M746.448,173.355
	c-0.543-16.336-13.113-30.851-37.416-43.006c-18.009-9.283-26.75-18.296-26.75-27.538c0-14.901,8.725-23.083,25.246-23.677
	c11.231,0,19.881,6.022,25.737,17.918c0.619-2.086,1.476-4.768,2.586-8.13c1.35-3.57,2.493-6.561,3.451-9.036
	c-8.636-5.142-19.044-8.01-30.964-8.512c-29.979,1.586-45.104,15.395-46.149,42.209c0,18.069,11.447,32.581,34.045,43.077
	c18.884,8.583,28.451,18.415,28.451,29.206c-1.201,15.159-10.242,23.088-26.875,23.684c-16.46-0.571-26.754-8.312-30.666-23.041
	h-0.291c-1.058,8.011-2.725,15.902-4.977,23.498c10.014,3.785,20.404,5.966,30.92,6.481
	C726.001,216.49,744.329,200.748,746.448,173.355z M790.165,154.318c-0.396,0.029-0.979,0.129-1.449,0.608
	c-0.426,0.408-0.67,0.984-0.67,1.567v57.52h-26.267V81.688h47.315c27.097,0,40.521,10.35,41.021,31.631
	c0.2,11.582-2.983,20.799-9.451,27.381c-8.902,9.069-24.479,13.664-46.305,13.664C793.021,154.363,791.671,154.346,790.165,154.318z
	 M789.93,147.653c1.012,0.152,2.102,0.227,3.204,0.227c3.229,0,6.948-0.625,11.056-1.855c11.918-3.409,18.539-13.102,19.653-28.952
	c-1.114-17.874-8.149-27.813-21.039-29.551h-12.561c-1.207,0-2.197,0.989-2.197,2.193v55.779
	C788.046,146.576,788.854,147.503,789.93,147.653z M955.192,81.688v132.328h71.602c-0.35-2.406-0.539-4.623-0.539-6.457
	c0-2.099,0.152-4.067,0.48-5.867c-4.938,0.759-10.391,1.359-16.218,1.766c-6.815,0.527-15.854,0.793-27.641,0.793
	c-1.211,0-2.19-0.984-2.19-2.188v-51.074c0-1.199,0.979-2.188,2.19-2.188h21.205c7.958,0.479,15.216,0.938,21.858,1.395
	c-0.119-0.544-0.241-1.153-0.411-1.821l-0.066-9.159c0-0.249,0.029-0.49,0.117-0.7c0.074-0.238,0.15-0.463,0.22-0.675
	c-6.624,0.791-13.925,1.2-21.718,1.2h-21.205c-1.211,0-2.191-0.988-2.191-2.185V93.641c0-1.205,0.98-2.188,2.191-2.188
	c14.137,0,28.969,0.934,44.126,2.756c-0.506-2.132-0.749-4.167-0.749-6.061c0-2.274,0.243-4.433,0.768-6.46H955.192z
	 M1088.773,214.016h-43.598V81.688l56.077-0.012c37.812,2.569,57.19,22.933,59.246,62.117
	C1157.962,187.846,1133.827,211.468,1088.773,214.016z M1131.087,143.92c0-36.375-16.33-54.83-48.533-54.83h-9.715
	c-1.198,0-2.183,0.99-2.183,2.193v113.14c0,1.197,0.984,2.187,2.183,2.187h8.591c16.45,0,29.011-5.369,37.321-15.957
	C1126.927,180.225,1131.087,164.492,1131.087,143.92z M864.782,81.688v132.328h71.588c-0.349-2.406-0.539-4.623-0.539-6.457
	c0-2.099,0.154-4.067,0.471-5.867c-4.946,0.759-10.391,1.359-16.203,1.766c-6.813,0.527-15.864,0.793-27.653,0.793
	c-1.199,0-2.188-0.984-2.188-2.188v-51.074c0-1.199,0.988-2.188,2.188-2.188h21.213c7.972,0.479,15.217,0.938,21.859,1.395
	c-0.113-0.544-0.246-1.153-0.406-1.821l-0.072-9.159c0-0.249,0.047-0.49,0.119-0.7c0.076-0.238,0.145-0.463,0.2-0.675
	c-6.602,0.791-13.896,1.2-21.7,1.2h-21.213c-1.199,0-2.188-0.988-2.188-2.185V93.641c0-1.205,0.988-2.188,2.188-2.188
	c14.137,0,28.971,0.934,44.131,2.756c-0.498-2.132-0.744-4.167-0.744-6.061c0-2.274,0.26-4.433,0.753-6.46H864.782z"/>
<g>
	<g>
		<path fill="#929496" d="M252.704,145.91l-65.245-65.24l-27.795,35.275l29.968,29.964c2.759,2.769,2.759,7.29,0,10.046
			l-8.671,8.675c0,0,5.845,8.74,6.113,9.275c1.349,2.7,1.671,9.044-2.153,11.948l-68.152,52.313
			c-0.015,17.556-0.034,53.661-0.01,53.677c0.015,0.004,135.945-135.89,135.945-135.89
			C255.472,153.188,255.472,148.678,252.704,145.91z"/>
		<path fill="#232020" d="M101.157,154.123c-2.759-2.758-2.759-7.266,0-10.039l8.676-8.676l-5.931-8.527
			c-2.831-4.011-1.944-9.705,1.962-12.687l68.163-52.324l0.047-53.638l-0.042-0.029l-0.034-0.048L38.082,144.084
			c-2.765,2.772-2.765,7.281,0.005,10.051l65.24,65.236l27.799-35.284L101.157,154.123z"/>
	</g>
	<g>
		<path fill="none" stroke="#232020" stroke-miterlimit="10" d="M82.216,260.355c-1.29-0.086-2.576-0.933-3.139-2.065
			c-1.118-2.271,0.519-4.379,1.306-5.394l59.706-75.782c0.547-0.718,0.605-2.183,0.115-2.916l-33.328-47.938
			c-2.495-3.543-1.723-8.564,1.728-11.201l96.042-73.727c1.499-1.17,2.578-1.644,3.733-1.644c1.383,0,2.717,0.837,3.331,2.079
			c1.113,2.301-0.527,4.37-1.314,5.364l-59.726,75.807c-0.534,0.68-0.581,2.202-0.092,2.906c0,0,32.238,46.749,33.347,48.354
			c1.57,2.268,1.56,8.267-1.761,10.782l-96.029,73.725C84.789,259.743,83.719,260.346,82.216,260.355z"/>
		<path fill="#BBBCC0" d="M180.477,175.08c0.778,1.177,1.468,5.604-0.471,7.078l-96.047,73.721
			c-0.807,0.629-1.324,0.926-1.555,0.905c-0.332,0.021-0.092-0.563,0.792-1.697l59.702-75.769c1.507-1.943,1.607-5.146,0.221-7.15
			l-33.323-47.954C109.796,124.214,179.704,173.906,180.477,175.08z"/>
		<path fill="#E6E6E7" d="M180.477,175.08l-32.819-47.21c-1.391-2.005-1.277-5.213,0.216-7.119l59.707-75.796
			c0.887-1.13,1.118-1.699,0.8-1.699c-0.239,0-0.767,0.277-1.559,0.906l-96.048,73.725c-1.929,1.479-2.38,4.337-0.978,6.328
			L180.477,175.08z"/>
	</g>
</g>
</svg>
